<mxfile host="app.diagrams.net" modified="2021-08-28T03:48:53.460Z" agent="5.0 (X11)" etag="oNj0ZVHXve0s94m07aNl" version="15.0.3" type="github">
  <diagram id="iLdBmy0IoaElyywwhQBP" name="Page-1">
    <mxGraphModel dx="782" dy="472" grid="1" gridSize="10" guides="1" tooltips="1" connect="1" arrows="1" fold="1" page="1" pageScale="1" pageWidth="850" pageHeight="1100" math="0" shadow="0">
      <root>
        <mxCell id="0" />
        <mxCell id="1" parent="0" />
        <mxCell id="j91NuS35d-b_vVIaP3_w-1" value="" style="rounded=0;whiteSpace=wrap;html=1;" vertex="1" parent="1">
          <mxGeometry x="320" y="260" width="140" height="80" as="geometry" />
        </mxCell>
        <mxCell id="j91NuS35d-b_vVIaP3_w-2" value="Text" style="text;html=1;strokeColor=none;fillColor=none;align=center;verticalAlign=middle;whiteSpace=wrap;rounded=0;" vertex="1" parent="1">
          <mxGeometry x="370" y="280" width="40" height="30" as="geometry" />
        </mxCell>
      </root>
    </mxGraphModel>
  </diagram>
</mxfile>
